<svg width="144" height="120" viewBox="0 0 144 120" fill="none" xmlns="http://www.w3.org/2000/svg">
<g opacity="0.1">
<path d="M84.0653 97.8219H84.052C83.4747 97.8219 82.9887 98.018 82.7151 98.2916L82.5844 98.4223L82.419 98.505C82.1323 98.6484 81.9919 98.7246 81.881 98.8197C81.8001 98.889 81.7185 98.9837 81.6513 99.1853L81.6206 99.2775L81.5747 99.3631C79.6674 102.923 79.2907 105.962 80.0582 108.619C80.8328 111.3 82.8288 113.787 86.0567 116.111L86.0592 116.113C89.5399 118.634 94.1467 118.707 98.8111 117.411C103.457 116.12 107.936 113.526 110.91 111.07C118.583 104.719 126.327 96.048 132.046 86.3623C137.769 76.669 141.418 66.0404 141.027 55.7519L141.022 55.6236L141.046 55.4975C143.694 41.4613 143.157 26.3947 139.208 14.017C136.724 6.57722 129.49 2.73026 121.737 2.2134L121.736 2.21339C120.499 2.13081 119.085 2.00696 117.549 1.87238C113.989 1.56044 109.771 1.19091 105.564 1.14442C102.57 1.11134 99.6377 1.2446 97.0285 1.67337C94.4075 2.1041 92.1932 2.82053 90.5756 3.89877L84.0653 97.8219ZM84.0653 97.8219L84.0785 97.8216M84.0653 97.8219L84.0785 97.8216M84.0785 97.8216C90.1958 97.6793 97.0027 94.2953 102.474 89.542M84.0785 97.8216L102.474 89.542M102.474 89.542C107.947 84.7876 112.302 78.4737 113.296 72.2246L102.474 89.542ZM113.296 72.2237C113.943 68.1992 113.008 65.397 110.843 63.5358C108.79 61.7717 105.813 61.0287 102.801 60.5744C101.379 60.3599 99.8919 60.2031 98.4277 60.0488C98.3176 60.0372 98.2077 60.0256 98.098 60.014C96.5163 59.8469 94.9645 59.6773 93.4888 59.4344C90.5051 58.9433 88.0439 58.1808 86.4258 56.7409C83.0387 53.5888 81.7739 48.1155 81.5415 42.0404C81.3506 37.049 81.8595 31.9052 82.2711 27.7434C82.3567 26.8787 82.438 26.0565 82.508 25.2868C82.5505 24.8624 82.592 24.4362 82.6337 24.0089C82.9911 20.3452 83.3564 16.6004 84.3432 13.1754C85.4364 9.38144 87.2597 6.10961 90.5756 3.89882L113.296 72.2237Z" stroke="#171717" stroke-width="2.27837"/>
<path d="M5.5051 97.8219H5.51834L5.53159 97.8216C11.6492 97.6793 18.456 94.2953 23.9274 89.542C29.3973 84.79 33.7504 78.4802 34.7478 72.2344C35.4629 68.2161 34.5702 65.4067 32.4117 63.5384C30.3696 61.7708 27.38 61.0282 24.3534 60.5742C22.9227 60.3596 21.4249 60.2028 19.9493 60.0483C19.8397 60.0369 19.7302 60.0254 19.6209 60.0139C18.0282 59.8468 16.4647 59.6772 14.9783 59.4342C11.9718 58.9427 9.49567 58.1796 7.87877 56.7408C4.49172 53.5887 3.227 48.1155 2.99463 42.0404C2.8037 37.049 3.31255 31.9052 3.72424 27.7434C3.80977 26.8787 3.89111 26.0565 3.96111 25.2868C4.00351 24.8627 4.04505 24.4369 4.08669 24.01C4.44413 20.346 4.80947 16.6008 5.7965 13.1754C6.88974 9.3814 8.71307 6.10954 12.0288 3.89875C13.6463 2.82052 15.8606 2.1041 18.4816 1.67337C21.0908 1.2446 24.0231 1.11134 27.0172 1.14442C31.2244 1.19091 35.442 1.56044 39.0024 1.87238C40.5383 2.00696 41.9519 2.13081 43.1896 2.21339L43.1897 2.2134C50.9431 2.73026 58.1778 6.57725 60.6614 14.017C64.6096 26.3948 65.1473 41.4613 62.4991 55.4975L62.4753 55.6236L62.4802 55.7519C62.8708 66.0402 59.2221 76.6687 53.4988 86.3621C47.7797 96.0481 40.0358 104.72 32.3627 111.07C29.3891 113.526 24.9101 116.12 20.2638 117.411C15.5993 118.707 10.9925 118.634 7.51182 116.113L7.50931 116.111C4.28149 113.787 2.28542 111.3 1.51082 108.619C0.743401 105.962 1.12011 102.923 3.02738 99.3631L3.0731 99.2777L3.10376 99.1859C3.17122 98.9838 3.25295 98.8891 3.33389 98.8197C3.44469 98.7247 3.58513 98.6484 3.8718 98.5052L4.03734 98.4225L4.1682 98.2916C4.44182 98.018 4.92779 97.8219 5.5051 97.8219Z" stroke="#171717" stroke-width="2.27837"/>
</g>
</svg>
