<svg width="40" height="40" viewBox="0 0 40 40" fill="none" xmlns="http://www.w3.org/2000/svg">
<g clip-path="url(#clip0_3490_1546)">
<path d="M20 5.00781C11.389 5.00781 4.38355 12.0133 4.38355 20.6242C4.38355 21.2764 4.42418 21.9329 4.50434 22.5755L5.6695 22.4303C5.61932 22.0282 5.58739 21.6201 5.57103 21.2114H10.653C10.6722 22.0822 10.7342 22.9466 10.8379 23.7945H5.00978V31.3092H0V39.998H21.2133V36.1932C25.0331 35.8999 28.5808 34.2295 31.2546 31.4505C34.0673 28.5271 35.6164 24.6822 35.6164 20.6242C35.6164 12.0133 28.6109 5.00781 20 5.00781ZM31.9498 12.5225H28.0122C27.6465 11.5115 27.2101 10.5646 26.7064 9.70103C26.0485 8.57321 25.3049 7.6345 24.4986 6.90026C27.5592 7.90597 30.1718 9.90831 31.9498 12.5225ZM29.347 20.0371C29.2983 17.8041 28.9728 15.6518 28.3972 13.6966H32.669C33.7101 15.5932 34.3372 17.7474 34.4293 20.0371H29.347ZM14.951 32.4833H16.2818V35.0665H14.951V32.4833ZM16.2035 31.3091V28.726H19.4129V31.3091H16.2035ZM21.2133 34.9044V31.3091H20.587V28.726H26.7578C26.5003 29.3891 26.2097 30.0193 25.8875 30.6096C24.6196 32.9324 22.9794 34.4314 21.2133 34.9044ZM20.587 27.5518V21.2113H28.1728C28.1213 23.4528 27.7758 25.6143 27.1686 27.5518H20.587ZM20.587 20.0371V13.6966H27.1708C27.7773 15.6298 28.1216 17.787 28.1727 20.0371H20.587ZM12.8291 13.6966H19.4129V20.0371H11.8272C11.8783 17.787 12.2226 15.6298 12.8291 13.6966ZM10.6528 20.0371H5.57064C5.66269 17.7474 6.28977 15.5932 7.33095 13.6966H11.6027C11.0271 15.6518 10.7016 17.8041 10.6528 20.0371ZM20.587 6.21947C22.4945 6.46268 24.289 7.88734 25.6922 10.2927C26.0941 10.9818 26.4508 11.7287 26.7597 12.5225H20.587V6.21947ZM19.4129 6.21947V12.5225H13.2402C13.5491 11.7286 13.9058 10.9818 14.3078 10.2927C15.711 7.88734 17.5054 6.46268 19.4129 6.21947ZM15.5014 6.90026C14.6951 7.6345 13.9515 8.57329 13.2936 9.70103C12.7899 10.5646 12.3535 11.5115 11.9877 12.5225H8.05016C9.82816 9.90831 12.4407 7.90597 15.5014 6.90026ZM11.8275 21.2113H19.4129V27.5518H16.2035V23.7945H12.0205C11.9119 22.9483 11.8476 22.0832 11.8275 21.2113ZM9.94127 24.9686H11.272V27.5518H9.94127V24.9686ZM6.18394 24.9686H8.76711V28.726H12.4462V24.9686H15.0293V31.3091H6.18394V24.9686ZM4.9315 32.4833H6.26222V35.0665H4.9315V32.4833ZM1.17417 32.4833H3.75733V36.2406H7.43639V32.4833H10.0196V38.8238H1.17417V32.4833ZM20.0391 38.8238H11.1937V32.4833H13.7769V36.2406H17.4559V32.4833H20.0391V38.8238ZM30.4085 30.6363C28.7433 32.367 26.7115 33.6323 24.4836 34.3576C25.3876 33.5391 26.2106 32.4682 26.9181 31.1722C27.3324 30.4132 27.6971 29.5932 28.0104 28.726H30.6457V27.5518H28.3945C28.9708 25.5924 29.298 23.4364 29.3471 21.2113H34.4296C34.2882 24.7466 32.8736 28.0742 30.4085 30.6363Z" fill="white"/>
<path d="M6.84375 28.8047H8.09619V29.9789H6.84375V28.8047Z" fill="white"/>
<path d="M1.84375 36.3203H3.09619V37.4945H1.84375V36.3203Z" fill="white"/>
<path d="M11.8594 36.3203H13.1118V37.4945H11.8594V36.3203Z" fill="white"/>
<path d="M35.6569 0C33.2614 0 31.3125 1.94888 31.3125 4.34441C31.3125 8.36969 35.1672 10.9857 35.3313 11.0951L35.6569 11.3122L35.9826 11.0951C36.1466 10.9857 40.0013 8.36969 40.0013 4.34441C40.0013 1.94888 38.0524 0 35.6569 0ZM37.1101 8.47865C36.5571 9.12812 35.9971 9.60851 35.6569 9.87599C35.3166 9.60836 34.7567 9.12805 34.2037 8.47865C33.0644 7.14073 32.4867 5.74973 32.4867 4.34441C32.4867 2.59632 33.9088 1.17417 35.6569 1.17417C37.405 1.17417 38.8272 2.59632 38.8272 4.34441C38.8272 5.74973 38.2495 7.14073 37.1101 8.47865Z" fill="white"/>
<path d="M35.652 2.50391C34.6377 2.50391 33.8125 3.32911 33.8125 4.34343C33.8125 5.35776 34.6377 6.18296 35.652 6.18296C36.6663 6.18296 37.4916 5.35776 37.4916 4.34343C37.4916 3.32911 36.6663 2.50391 35.652 2.50391ZM35.652 5.00879C35.2851 5.00879 34.9867 4.71032 34.9867 4.34343C34.9867 3.97655 35.2851 3.67807 35.652 3.67807C36.0189 3.67807 36.3174 3.97655 36.3174 4.34343C36.3174 4.71032 36.0189 5.00879 35.652 5.00879Z" fill="white"/>
</g>
<defs>
<clipPath id="clip0_3490_1546">
<rect width="40" height="40" rx="5" fill="white"/>
</clipPath>
</defs>
</svg>
