<svg width="40" height="40" viewBox="0 0 40 40" fill="none" xmlns="http://www.w3.org/2000/svg">
<path d="M14.9922 26.3008H16.2446V27.4749H14.9922V26.3008Z" fill="white"/>
<path d="M17.5 26.3008H18.7524V27.4749H17.5V26.3008Z" fill="white"/>
<path d="M20 26.3008H21.2524V27.4749H20V26.3008Z" fill="white"/>
<path d="M28.3862 20.6654H26.2253V5.00978H23.0941V1.25245H19.3368V0H10.648V1.25245H6.89062V7.47554H8.06479V2.42661H10.648V4.93151H19.3368V2.42661H21.92V21.2916H8.06479V8.72798H6.89062V22.4658H10.0217V33.7378H22.5071V32.5636H11.1959V29.9804H21.92V30.8889L24.4249 33.3938V40H33.1137V25.3929L28.3862 20.6654ZM18.1626 3.75734H11.8221V1.17417H18.1626V3.75734ZM23.0941 6.18395H25.0511V8.76712H23.0941V6.18395ZM21.92 28.8063H11.1959V22.4658H23.0941V9.94129H25.0511V20.6654H24.4249V24.4227H21.92V28.8063ZM31.9396 38.8258H25.599V32.9076L23.0941 30.4027V25.5969H24.4249V28.7671H25.599V21.8395H27.8999L31.9396 25.8791V38.8258Z" fill="white"/>
<path d="M13.0697 6.26172H9.39062V9.94078H13.0697V6.26172ZM11.8955 8.76661H10.5648V7.43589H11.8955V8.76661Z" fill="white"/>
<path d="M14.3672 8.76562H18.7507V9.93979H14.3672V8.76562Z" fill="white"/>
<path d="M14.3672 6.26172H20.0032V7.43589H14.3672V6.26172Z" fill="white"/>
<path d="M9.39062 14.9525H13.0697V11.2734H9.39062V14.9525ZM10.5648 12.4476H11.8955V13.7783H10.5648V12.4476Z" fill="white"/>
<path d="M14.3672 11.2734H20.0032V12.4476H14.3672V11.2734Z" fill="white"/>
<path d="M14.3672 13.7773H18.7507V14.9515H14.3672V13.7773Z" fill="white"/>
<path d="M9.39062 19.9603H13.0697V16.2812H9.39062V19.9603ZM10.5648 17.4554H11.8955V18.7861H10.5648V17.4554Z" fill="white"/>
<path d="M14.3672 16.2812H20.0032V17.4554H14.3672V16.2812Z" fill="white"/>
<path d="M14.3672 18.7852H18.7507V19.9593H14.3672V18.7852Z" fill="white"/>
</svg>
