<svg width="40" height="40" viewBox="0 0 40 40" fill="none" xmlns="http://www.w3.org/2000/svg">
<g clip-path="url(#clip0_3490_1528)">
<path d="M20 35.0703H21.2524V36.2445H20V35.0703Z" fill="white"/>
<path d="M22.5078 35.0703H23.7603V36.2445H22.5078V35.0703Z" fill="white"/>
<path d="M10.6484 32.5625V37.494H15.5799V32.5625H10.6484ZM13.5755 33.7367L11.8226 35.4895V33.7367H13.5755ZM12.6529 36.3198L14.4058 34.567V36.3198H12.6529Z" fill="white"/>
<path d="M30.6863 38.8272H26.8507V23.2974L29.7778 26.2245H36.4481L31.5166 21.293H8.48619L3.55469 26.2245H8.14224V31.8996H9.31641V26.2245H22.7494L25.6765 23.2974V38.8272H9.31641V33.1521H8.14224V40.0014H31.8604V27.5161H30.6863V38.8272ZM31.0302 22.4671L33.6134 25.0503H30.2641L27.6809 22.4671H31.0302ZM22.2631 25.0503H6.38929L8.97246 22.4671H24.8462L22.2631 25.0503Z" fill="white"/>
<path d="M20.0026 18.7084C25.1606 18.7084 29.3569 14.5122 29.3569 9.35421C29.3569 4.19624 25.1606 0 20.0026 0C14.8447 0 10.6484 4.19624 10.6484 9.35421C10.6484 14.5122 14.8447 18.7084 20.0026 18.7084ZM20.0026 1.17417C24.5132 1.17417 28.1827 4.84376 28.1827 9.35421C28.1827 13.8647 24.5132 17.5342 20.0026 17.5342C15.4921 17.5342 11.8226 13.8647 11.8226 9.35421C11.8226 4.84376 15.4921 1.17417 20.0026 1.17417Z" fill="white"/>
<path d="M20.0056 16.2025C23.7823 16.2025 26.8549 13.13 26.8549 9.35322C26.8549 5.57647 23.7823 2.50391 20.0056 2.50391C16.2288 2.50391 13.1562 5.57647 13.1562 9.35322C13.1562 13.13 16.2288 16.2025 20.0056 16.2025ZM19.4185 3.70845V4.96966H20.5926V3.70845C23.2541 3.9832 25.3756 6.10477 25.6503 8.76614H24.3891V9.94031H25.6503C25.3756 12.6017 23.2541 14.7232 20.5926 14.998V13.7368H19.4185V14.998C16.757 14.7232 14.6355 12.6017 14.3607 9.94031H15.622V8.76614H14.3607C14.6355 6.10477 16.757 3.9832 19.4185 3.70845Z" fill="white"/>
<path d="M22.2949 10.8173L20.5882 9.11064V6.22266H19.4141V9.5969L21.4647 11.6476L22.2949 10.8173Z" fill="white"/>
</g>
<defs>
<clipPath id="clip0_3490_1528">
<rect width="40" height="40" rx="5" fill="white"/>
</clipPath>
</defs>
</svg>
