<svg width="80" height="66" viewBox="0 0 80 66" fill="none" xmlns="http://www.w3.org/2000/svg">
<path d="M53.6941 21.7299C53.6941 14.1764 47.549 8.03125 39.9955 8.03125C32.442 8.03125 26.2969 14.1764 26.2969 21.7299C26.2969 29.2834 32.442 35.4285 39.9955 35.4285C47.549 35.4285 53.6941 29.2834 53.6941 21.7299ZM45.4916 28.0704L44.1608 26.7397L47.9964 22.904H51.2851C51.089 24.8031 50.4231 26.5648 49.4053 28.0704H45.4916ZM41.1697 10.4402C42.7919 10.6077 44.3121 11.1206 45.6597 11.9002L43.8311 13.7289V15.5459H42.9867L41.1697 13.7289V10.4402ZM28.7258 20.3992H31.9946L34.4995 22.904H36.3164V23.7485L34.4995 25.5655H29.3137C28.8819 24.3667 28.6452 23.0756 28.6452 21.7299C28.6452 21.2795 28.6745 20.8359 28.7258 20.3992ZM30.4851 27.9138H35.472L38.6648 24.721V20.5557H35.472L32.9671 18.0508H29.2606C30.6706 13.9486 34.3664 10.9003 38.8213 10.4402V14.7015L42.0141 17.8943H46.1795V14.7015L47.5836 13.2973C49.618 15.13 50.9889 17.6854 51.2851 20.5557H47.0238L40.8398 26.7397L44.5189 30.4187H47.2877C45.3139 32.0781 42.77 33.0802 39.9955 33.0802C36.017 33.0802 32.5123 31.0208 30.4851 27.9138Z" fill="#171717"/>
<path d="M3.6875 58.125H6.19239V60.4733H3.6875V58.125Z" fill="#171717"/>
<path d="M61.2891 43.0977H63.794V45.446H61.2891V43.0977Z" fill="#171717"/>
<path d="M58.8512 33.0792C60.421 29.126 61.2133 25.3338 61.2133 21.7289C61.2133 10.0319 51.6971 0.515625 40 0.515625C33.5283 0.515625 27.4923 3.41488 23.4398 8.47007L25.2722 9.93887C28.8766 5.44275 34.2445 2.86396 40 2.86396C50.4022 2.86396 58.865 11.3267 58.865 21.7289C58.865 30.4461 53.5616 39.245 49.1126 45.0914C45.3708 50.0087 41.5856 53.7211 40 55.206C38.4144 53.7211 34.6292 50.0087 30.8874 45.0914C22.8269 34.4992 21.135 26.5404 21.135 21.7289C21.135 18.4121 22.0075 15.1506 23.6582 12.2972L21.6255 11.1213C19.7683 14.3317 18.7867 17.9998 18.7867 21.7289C18.7867 29.2637 22.2386 37.6148 29.0464 46.5501C29.7312 47.4489 30.4141 48.3043 31.0841 49.1149C28.7017 49.6932 26.6342 50.4995 25.0173 51.4885C23.7933 52.2371 22.9548 53.0108 22.3875 53.7584V48.1086H0V65.4863H22.3875V59.8312C23.3625 61.1143 24.9697 62.2608 27.1389 63.1904C30.5935 64.6709 35.161 65.4863 40 65.4863C44.839 65.4863 49.4065 64.6709 52.8611 63.1904C55.0301 62.2608 56.6373 61.1143 57.6125 59.8312V65.4863H80V33.0792H58.8512ZM9.86301 50.4569H12.5245V55.6233H9.86301V50.4569ZM20.0391 63.1379H2.34834V50.4569H7.51468V57.9716H14.8728V50.4569H20.0391V63.1379ZM67.4755 35.4276H70.137V40.5939H67.4755V35.4276ZM40 63.1379C30.3587 63.1379 23.6399 59.7964 23.6399 56.7974C23.6399 54.5316 27.4334 52.2257 32.8102 51.1394C36.2921 55.0985 39.0718 57.5456 39.2268 57.6812L40 58.3577L40.7732 57.6812C40.9281 57.5456 43.7079 55.0986 47.1898 51.1394C52.5666 52.2257 56.3601 54.5316 56.3601 56.7974C56.3601 59.7964 49.6412 63.1379 40 63.1379ZM77.6517 63.1379H59.9609V50.4569H65.1272V57.9716H72.4853V50.4569H77.6517V63.1379ZM67.4755 50.4569H70.137V55.6233H67.4755V50.4569ZM77.6517 48.1086H57.6125V53.7584C57.0452 53.0108 56.2065 52.2371 54.9827 51.4885C53.3658 50.4995 51.2983 49.6932 48.9159 49.1149C49.5861 48.3043 50.2688 47.4489 50.9536 46.5501C53.7365 42.8976 55.9577 39.3429 57.6125 35.9015V45.5254H59.9609V35.4276H65.1272V42.9422H72.4853V35.4276H77.6517V48.1086Z" fill="#171717"/>
<path d="M61.2891 58.125H63.794V60.4733H61.2891V58.125Z" fill="#171717"/>
</svg>
