<svg width="80" height="80" viewBox="0 0 80 80" fill="none" xmlns="http://www.w3.org/2000/svg">
<path d="M45.0078 70.1328H47.5127V72.4811H45.0078V70.1328Z" fill="#FF6600"/>
<path d="M50.0195 70.1328H52.5244V72.4811H50.0195V70.1328Z" fill="#FF6600"/>
<path d="M26.3047 65.125V74.988H36.1677V65.125H26.3047ZM32.1589 67.4733L28.653 70.9792V67.4733H32.1589ZM30.3135 72.6397L33.8194 69.1338V72.6397H30.3135Z" fill="#FF6600"/>
<path d="M66.2235 27.3973V26.2231C66.2235 19.3169 63.5613 12.7978 58.7273 7.86677L57.0505 9.51076C61.1763 13.7195 63.5644 19.1994 63.8469 25.0488H53.6853C53.5408 18.6181 52.2124 12.5969 49.9067 7.9856C48.9742 6.1207 47.9176 4.56094 46.7685 3.32775C49.9651 4.27241 52.9528 5.88227 55.5186 8.07875L57.0459 6.29479C52.3042 2.23562 46.2506 0 40.0004 0C25.5409 0 13.7773 11.7636 13.7773 26.2231V27.3973H20.6267L37.6521 50.0978H21.292V63.7965H23.6404V52.4462H33.8165V62.4658H46.1844V52.4462H56.3605V77.6517H23.6404V66.3014H21.292V80H58.7089V50.0978H42.3488L59.3742 27.3973H66.2235ZM51.3368 25.0489H41.1746V2.48235C43.6252 3.0364 45.9452 5.31366 47.8063 9.03593C49.9541 13.3314 51.1948 18.98 51.3368 25.0489ZM38.8263 2.48235V25.0489H28.6641C28.8061 18.98 30.0468 13.3314 32.1946 9.03593C34.0557 5.31366 36.3757 3.0364 38.8263 2.48235ZM44.7588 27.3973L40.0004 46.4308L35.2421 27.3973H44.7588ZM33.2341 3.32587C32.0844 4.55937 31.027 6.11976 30.0941 7.98575C27.7885 12.5971 26.4599 18.6182 26.3156 25.0489H16.1542C16.6555 14.7496 23.7144 6.14403 33.2341 3.32587ZM32.8214 27.3973L37.4511 45.9161L23.5621 27.3973H32.8214ZM36.1648 52.4462H38.8263V60.1174H36.1648V52.4462ZM43.8361 60.1174H41.1746V52.4462H43.8361V60.1174ZM42.5498 45.9159L47.1795 27.3973H56.4388L42.5498 45.9159Z" fill="#FF6600"/>
</svg>
