<svg width="80" height="80" viewBox="0 0 80 80" fill="none" xmlns="http://www.w3.org/2000/svg">
<path d="M80 42.0178L69.303 31.3208H59.9804V18.8086H46.2951V21.1546H57.6344V43.833H14.9365V36.1693H32.61V42.833L42.9491 32.4938L32.61 22.1547V28.8184H14.9365V21.1546H43.7928V18.8086H0V21.1546H12.5904V23.8135H2.50244V26.1595H12.5904V28.8184H7.50733V31.1644H34.956V27.8183L39.6315 32.4938L34.956 37.1693V33.8233H12.5904V56.1888H20.2108C20.7606 59.0362 23.2702 61.1937 26.2757 61.1937C29.6821 61.1937 32.4536 58.4223 32.4536 55.0158C32.4536 51.6094 29.6821 48.8379 26.2757 48.8379C23.2702 48.8379 20.7606 50.9955 20.2108 53.8428H14.9365V46.1791H57.6344V53.8428H35.0342V56.1888H62.7524C63.302 59.0362 65.8118 61.1937 68.8172 61.1937C71.8226 61.1937 74.3323 59.0362 74.882 56.1888H80V42.0178ZM26.2757 51.184C28.3885 51.184 30.1075 52.903 30.1075 55.0158C30.1075 57.1287 28.3885 58.8477 26.2757 58.8477C24.1628 58.8477 22.4438 57.1287 22.4438 55.0158C22.4438 52.903 24.1628 51.184 26.2757 51.184ZM68.3314 33.6669L75.9952 41.3306H59.9804V33.6669H68.3314ZM68.8172 58.8477C66.7044 58.8477 64.9853 57.1287 64.9853 55.0158C64.9853 52.903 66.7044 51.184 68.8172 51.184C70.93 51.184 72.6491 52.903 72.6491 55.0158C72.6491 57.1287 70.93 58.8477 68.8172 58.8477ZM74.882 53.8428C74.3324 50.9955 71.8226 48.8379 68.8172 48.8379C65.8118 48.8379 63.3021 50.9955 62.7524 53.8428H59.9804V43.6766H77.654V53.8428H74.882Z" fill="#171717"/>
<path d="M25.0312 53.8438H27.5337V56.1898H25.0312V53.8438Z" fill="#171717"/>
<path d="M67.5625 53.8438H70.0649V56.1898H67.5625V53.8438Z" fill="#171717"/>
<path d="M40.0391 48.8359H55.0537V51.182H40.0391V48.8359Z" fill="#171717"/>
<path d="M61.3125 45.082H66.3174V47.4281H61.3125V45.082Z" fill="#171717"/>
</svg>
