<svg width="80" height="80" viewBox="0 0 80 80" fill="none" xmlns="http://www.w3.org/2000/svg">
<path d="M32.4844 7.51562H52.5235V9.86396H32.4844V7.51562Z" fill="#FF6600"/>
<path d="M32.4844 12.5234H47.5137V14.8718H32.4844V12.5234Z" fill="#FF6600"/>
<path d="M63.0307 0H23.7969V26.2231H26.1452V2.34834H61.3703V14.8728H73.8947V67.6321H48.7675V69.9804H76.2431V13.2124L63.0307 0ZM63.7186 4.00877L72.2343 12.5245H63.7186V4.00877Z" fill="#FF6600"/>
<path d="M45.0078 27.5547H62.5421V29.903H45.0078V27.5547Z" fill="#FF6600"/>
<path d="M45.0078 22.543H67.5518V24.8913H45.0078V22.543Z" fill="#FF6600"/>
<path d="M31.3125 32.406H41.1755V22.543H31.3125V32.406ZM33.6608 24.8913H38.8272V30.0576H33.6608V24.8913Z" fill="#FF6600"/>
<path d="M45.0078 40.0781H62.5421V42.4265H45.0078V40.0781Z" fill="#FF6600"/>
<path d="M45.0078 35.0664H67.5518V37.4147H45.0078V35.0664Z" fill="#FF6600"/>
<path d="M45.0078 52.6016H62.5421V54.9499H45.0078V52.6016Z" fill="#FF6600"/>
<path d="M45.0078 47.5898H67.5518V49.9382H45.0078V47.5898Z" fill="#FF6600"/>
<path d="M31.3125 44.9294H41.1755V35.0664H31.3125V44.9294ZM33.6608 37.4147H38.8272V42.5811H33.6608V37.4147Z" fill="#FF6600"/>
<path d="M17.4609 57.6094H19.9658V59.9577H17.4609V57.6094Z" fill="#FF6600"/>
<path d="M36.1649 47.5915H26.1453V28.7266H23.797V47.5915H13.7774V62.6209H3.75781V79.9986H46.1844V62.6209H36.1649V47.5915ZM23.6404 49.9399H26.3018V55.1062H23.6404V49.9399ZM16.1257 49.9399H21.2921V57.4545H28.6502V49.9399H33.8165V62.6209H16.1257V49.9399ZM33.66 64.9692H36.3214V70.1356H33.66V64.9692ZM13.6208 64.9692H16.2823V70.1356H13.6208V64.9692ZM6.10615 64.9692H11.2725V72.4839H18.6306V64.9692H23.797V77.6502H6.10615V64.9692ZM43.8361 77.6502H26.1453V64.9692H31.3116V72.4839H38.6698V64.9692H43.8361V77.6502Z" fill="#FF6600"/>
<path d="M7.4375 72.6406H9.94239V74.989H7.4375V72.6406Z" fill="#FF6600"/>
<path d="M27.4844 72.6406H29.9893V74.989H27.4844V72.6406Z" fill="#FF6600"/>
</svg>
