<svg width="80" height="80" viewBox="0 0 80 80" fill="none" xmlns="http://www.w3.org/2000/svg">
<path d="M8.82812 58.8281V68.6719H18.6719V58.8281H8.82812ZM11.1719 61.1719H14.6708L11.1719 64.6708V61.1719ZM16.3281 66.3281H12.8292L16.3281 62.8292V66.3281Z" fill="#FF6600"/>
<path d="M27.5 63.8281H30V66.1719H27.5V63.8281Z" fill="#FF6600"/>
<path d="M32.5 63.8281H35V66.1719H32.5V63.8281Z" fill="#FF6600"/>
<path d="M45 36.3281H47.5V38.6719H45V36.3281Z" fill="#FF6600"/>
<path d="M50 36.3281H52.5V38.6719H50V36.3281Z" fill="#FF6600"/>
<path d="M62.5 63.8281H65V66.1719H62.5V63.8281Z" fill="#FF6600"/>
<path d="M67.5 63.8281H70V66.1719H67.5V63.8281Z" fill="#FF6600"/>
<path d="M76.1719 71.3281V43.8281H58.6719V31.25H56.3281V43.8281H23.6719V18.6719H33.8281V28.6719H46.1719V18.6719H51.39C51.9777 24.2833 56.7358 28.6719 62.5 28.6719C68.6602 28.6719 73.6719 23.6602 73.6719 17.5C73.6719 11.3398 68.6602 6.32812 62.5 6.32812C56.7356 6.32812 51.9777 10.7167 51.39 16.3281H21.3281V43.8281H3.82812V57.5H6.17188V46.1719H16.3281V56.1719H28.6719V46.1719H38.8281V71.3281H6.17188V60H3.82812V71.3281H0V73.6719H80V71.3281H76.1719ZM62.5 8.67188C67.3678 8.67188 71.3281 12.6322 71.3281 17.5C71.3281 22.3678 67.3678 26.3281 62.5 26.3281C57.6322 26.3281 53.6719 22.3678 53.6719 17.5C53.6719 12.6322 57.6322 8.67188 62.5 8.67188ZM41.1719 18.6719H43.8281V26.3281H41.1719V18.6719ZM36.1719 18.6719H38.8281V26.3281H36.1719V18.6719ZM21.3281 53.8281H18.6719V46.1719H21.3281V53.8281ZM26.3281 53.8281H23.6719V46.1719H26.3281V53.8281ZM58.6719 46.1719H61.3281V53.8281H58.6719V46.1719ZM53.6719 46.1719H56.3281V53.8281H53.6719V46.1719ZM73.8281 71.3281H41.1719V46.1719H51.3281V56.1719H63.6719V46.1719H73.8281V71.3281Z" fill="#FF6600"/>
<path d="M43.8281 68.6719H53.6719V58.8281H43.8281V68.6719ZM51.3281 66.3281H47.8292L51.3281 62.8292V66.3281ZM46.1719 61.1719H49.6708L46.1719 64.6708V61.1719Z" fill="#FF6600"/>
<path d="M26.3281 41.1719H36.1719V31.3281H26.3281V41.1719ZM33.8281 38.8281H30.3292L33.8281 35.3292V38.8281ZM28.6719 33.6719H32.1708L28.6719 37.1708V33.6719Z" fill="#FF6600"/>
<path d="M58.3294 23.3252L62.5006 19.1539L66.6719 23.3252L68.3294 21.668L64.158 17.4966L68.3294 13.3252L66.6719 11.668L62.5006 15.8392L58.3294 11.668L56.6719 13.3252L60.8433 17.4966L56.6719 21.668L58.3294 23.3252Z" fill="#FF6600"/>
</svg>
