<svg width="80" height="80" viewBox="0 0 80 80" fill="none" xmlns="http://www.w3.org/2000/svg">
<path d="M32.4883 7.51562H52.5274V9.86396H32.4883V7.51562Z" fill="#FF6600"/>
<path d="M32.4883 12.5234H47.5176V14.8718H32.4883V12.5234Z" fill="#FF6600"/>
<path d="M63.0307 0H23.7969V26.2231H26.1452V2.34834H61.3703V14.8728H73.8947V67.6321H48.7675V69.9804H76.2431V13.2124L63.0307 0ZM63.7186 4.00877L72.2343 12.5245H63.7186V4.00877Z" fill="#FF6600"/>
<path d="M17.4609 57.6094H19.9658V59.9577H17.4609V57.6094Z" fill="#FF6600"/>
<path d="M36.1649 52.4461H68.7285V20.0391H31.3116V47.5929H26.1453V28.7279H23.797V47.5929H13.7774V62.6222H3.75781V79.9999H46.1844V62.6222H36.1649V52.4461ZM43.6795 50.0978V44.9314H66.3801V50.0978H43.6795ZM41.3312 35.0684H33.66V29.9021H41.3312V35.0684ZM43.6795 29.9021H66.3801V35.0684H43.6795V29.9021ZM41.3312 37.4168V42.5831H33.66V37.4168H41.3312ZM43.6795 37.4168H66.3801V42.5831H43.6795V37.4168ZM66.3801 27.5537H43.6795V22.3874H66.3801V27.5537ZM41.3312 22.3874V27.5537H33.66V22.3874H41.3312ZM33.66 44.9314H41.3312V50.0978H36.1649V47.5929H33.66V44.9314ZM23.6404 49.9412H26.3018V55.1076H23.6404V49.9412ZM16.1257 49.9412H21.2921V57.4559H28.6502V49.9412H33.8165V62.6222H16.1257V49.9412ZM33.66 64.9706H36.3214V70.1369H33.66V64.9706ZM13.6208 64.9706H16.2823V70.1369H13.6208V64.9706ZM6.10615 64.9706H11.2725V72.4852H18.6306V64.9706H23.797V77.6516H6.10615V64.9706ZM43.8361 77.6516H26.1453V64.9706H31.3116V72.4852H38.6698V64.9706H43.8361V77.6516Z" fill="#FF6600"/>
<path d="M7.44141 72.6406H9.9463V74.989H7.44141V72.6406Z" fill="#FF6600"/>
<path d="M27.4805 72.6406H29.9854V74.989H27.4805V72.6406Z" fill="#FF6600"/>
</svg>
