<svg width="80" height="80" viewBox="0 0 80 80" fill="none" xmlns="http://www.w3.org/2000/svg">
<path d="M4.93359 15.0273H7.43849V17.3757H4.93359V15.0273Z" fill="#FF6600"/>
<path d="M9.94141 15.0273H12.4463V17.3757H9.94141V15.0273Z" fill="#FF6600"/>
<path d="M14.9531 15.0273H17.458V17.3757H14.9531V15.0273Z" fill="#FF6600"/>
<path d="M72.4853 57.6125V10.0195H0V69.9804H80V57.6125H72.4853ZM67.6321 59.9608V67.6321H64.9706V59.9608H67.6321ZM62.4658 57.6125V49.9413H65.1272V53.7769H67.4755V49.9413H70.137V57.6125H62.4658ZM70.137 20.0391H22.3875V12.3679H70.137V20.0391ZM20.0391 12.3679V20.0391H2.34834V12.3679H20.0391ZM52.6027 67.6321H2.34834V22.3874H70.137V47.5929H60.1174V57.6125H52.6027V67.6321ZM54.9511 59.9608H57.6125V63.7964H59.9609V59.9608H62.6223V67.6321H54.9511V59.9608ZM77.6517 67.6321H69.9804V59.9608H72.6419V63.7964H74.9902V59.9608H77.6517V67.6321Z" fill="#FF6600"/>
<path d="M63.7136 36.2435C63.7136 31.4525 59.8159 27.5547 55.0248 27.5547C50.2337 27.5547 46.3359 31.4525 46.3359 36.2435C46.3359 44.2941 54.0452 49.5262 54.3735 49.7449L55.0248 50.179L55.6761 49.7449C56.0044 49.5262 63.7136 44.2941 63.7136 36.2435ZM55.0248 47.3069C54.3442 46.7716 53.2242 45.811 52.1183 44.5122C49.8397 41.8362 48.6843 39.0542 48.6843 36.2435C48.6843 32.7475 51.5286 29.903 55.0248 29.903C58.521 29.903 61.3653 32.7475 61.3653 36.2435C61.3653 39.0542 60.2099 41.8362 57.9312 44.5122C56.8252 45.811 55.7052 46.7718 55.0248 47.3069Z" fill="#FF6600"/>
<path d="M55.0267 32.5625C52.9981 32.5625 51.3477 34.2129 51.3477 36.2416C51.3477 38.2702 52.9981 39.9206 55.0267 39.9206C57.0554 39.9206 58.7058 38.2702 58.7058 36.2416C58.7058 34.2129 57.0554 32.5625 55.0267 32.5625ZM55.0267 37.5723C54.2931 37.5723 53.696 36.9753 53.696 36.2416C53.696 35.5078 54.2931 34.9108 55.0267 34.9108C55.7603 34.9108 56.3574 35.5078 56.3574 36.2416C56.3574 36.9753 55.7603 37.5723 55.0267 37.5723Z" fill="#FF6600"/>
<path d="M36.6674 34.5706L39.6728 37.576H28.7305V39.9243H39.6728L36.6674 42.9297L38.3278 44.5902L44.1678 38.7502L38.3278 32.9102L36.6674 34.5706Z" fill="#FF6600"/>
<path d="M17.4584 30.0586C12.6673 30.0586 8.76953 33.9564 8.76953 38.7474C8.76953 43.5385 12.6673 47.4363 17.4584 47.4363C22.2495 47.4363 26.1472 43.5385 26.1472 38.7474C26.1472 33.9564 22.2495 30.0586 17.4584 30.0586ZM17.4584 45.0879C13.9623 45.0879 11.1179 42.2436 11.1179 38.7474C11.1179 35.2512 13.9623 32.4069 17.4584 32.4069C20.9544 32.4069 23.7989 35.2514 23.7989 38.7474C23.7989 42.2435 20.9544 45.0879 17.4584 45.0879Z" fill="#FF6600"/>
<path d="M18.6257 33.7344H16.2773V39.2304L19.1262 42.0793L20.7866 40.4188L18.6257 38.2579V33.7344Z" fill="#FF6600"/>
</svg>
