<svg width="80" height="80" viewBox="0 0 80 80" fill="none" xmlns="http://www.w3.org/2000/svg">
<path d="M4.93359 15.0273H7.43849V17.3757H4.93359V15.0273Z" fill="#FF6600"/>
<path d="M9.94141 15.0273H12.4463V17.3757H9.94141V15.0273Z" fill="#FF6600"/>
<path d="M14.9531 15.0273H17.458V17.3757H14.9531V15.0273Z" fill="#FF6600"/>
<path d="M72.4853 57.6125V10.0195H0V69.9804H80V57.6125H72.4853ZM22.3875 12.3679H70.137V20.0391H22.3875V12.3679ZM2.34834 12.3679H20.0391V20.0391H2.34834V12.3679ZM52.6027 67.6321H2.34834V22.3874H70.137V47.5929H60.1174V57.6125H52.6027V67.6321ZM67.4755 53.7769V49.9413H70.137V57.6125H62.4658V49.9413H65.1272V53.7769H67.4755ZM62.6223 67.6321H54.9511V59.9608H57.6125V63.7964H59.9609V59.9608H62.6223V67.6321ZM67.6321 67.6321H64.9706V59.9608H67.6321V67.6321ZM77.6517 67.6321H69.9804V59.9608H72.6419V63.7964H74.9902V59.9608H77.6517V67.6321Z" fill="#FF6600"/>
<path d="M40.0026 25.0469C32.4491 25.0469 26.3039 31.192 26.3039 38.7455C26.3039 41.1324 26.9181 43.3781 27.9958 45.3343L15.1719 58.1584L20.5896 63.5762L33.4138 50.7521C35.3699 51.83 37.6157 52.4441 40.0026 52.4441C47.5561 52.4441 53.7012 46.299 53.7012 38.7455C53.7012 31.192 47.5561 25.0469 40.0026 25.0469ZM20.5896 60.2553L18.4927 58.1584L29.3294 47.3219C29.9509 48.0939 30.6541 48.7972 31.4261 49.4187L20.5896 60.2553ZM40.0026 50.0958C33.7439 50.0958 28.6523 45.0041 28.6523 38.7455C28.6523 32.4869 33.7439 27.3952 40.0026 27.3952C46.2612 27.3952 51.3529 32.4869 51.3529 38.7455C51.3529 45.0041 46.2612 50.0958 40.0026 50.0958Z" fill="#FF6600"/>
<path d="M39.9974 30.0586C35.2065 30.0586 31.3086 33.9564 31.3086 38.7474C31.3086 43.5385 35.2065 47.4363 39.9974 47.4363C44.7884 47.4363 48.6863 43.5385 48.6863 38.7474C48.6863 33.9564 44.7885 30.0586 39.9974 30.0586ZM39.9974 45.0879C36.5012 45.0879 33.6569 42.2436 33.6569 38.7474C33.6569 35.2512 36.5012 32.4069 39.9974 32.4069C43.4936 32.4069 46.3379 35.2514 46.3379 38.7474C46.3379 42.2435 43.4936 45.0879 39.9974 45.0879Z" fill="#FF6600"/>
<path d="M36.2422 37.5742H38.7471V39.9226H36.2422V37.5742Z" fill="#FF6600"/>
<path d="M41.25 37.5742H43.7549V39.9226H41.25V37.5742Z" fill="#FF6600"/>
</svg>
