<svg width="98" height="70" viewBox="0 0 98 70" fill="none" xmlns="http://www.w3.org/2000/svg">
<path opacity="0.5" d="M28 40.9062H29V39.597L27.7369 39.9415L28 40.9062ZM84 40.9062H85V39.597L83.7369 39.9415L84 40.9062ZM21 0.999994C32.0415 0.999994 41 9.95853 41 21H43C43 8.85396 33.146 -1.00001 21 -1.00001V0.999994ZM41 21V42H43V21H41ZM41 42C41 56.9739 28.7653 69 14 69V71C29.8597 71 43 58.0886 43 42H41ZM14 69C10.6148 69 8 66.3852 8 63H6C6 67.4898 9.51022 71 14 71V69ZM8 63C8 59.8131 10.635 57 14 57V55C9.49005 55 6 58.7493 6 63H8ZM14 57C22.1983 57 29 50.4374 29 42H27C27 49.3125 21.1142 55 14 55V57ZM29 42V40.9062H27V42H29ZM27.7369 39.9415C25.3699 40.587 23.2794 41 21 41V43C23.5331 43 25.8176 42.538 28.2631 41.871L27.7369 39.9415ZM21 41C9.73979 41 1 32.2602 1 21H-1C-1 33.3648 8.63522 43 21 43V41ZM1 21C1 9.95171 9.74658 0.999994 21 0.999994V-1.00001C8.62842 -1.00001 -1 8.86078 -1 21H1ZM97 21V42H99V21H97ZM97 42C97 56.9739 84.7653 69 70 69V71C85.8597 71 99 58.0886 99 42H97ZM70 69C66.6148 69 64 66.3852 64 63H62C62 67.4898 65.5102 71 70 71V69ZM64 63C64 59.8131 66.635 57 70 57V55C65.4901 55 62 58.7493 62 63H64ZM70 57C78.1983 57 85 50.4374 85 42H83C83 49.3125 77.1142 55 70 55V57ZM85 42V40.9062H83V42H85ZM83.7369 39.9415C81.3699 40.587 79.2794 41 77 41V43C79.5331 43 81.8176 42.538 84.2631 41.871L83.7369 39.9415ZM77 41C65.7398 41 57 32.2602 57 21H55C55 33.3648 64.6352 43 77 43V41ZM57 21C57 9.95171 65.7466 0.999994 77 0.999994V-1.00001C64.6284 -1.00001 55 8.86078 55 21H57ZM77 0.999994C88.0415 0.999994 97 9.95853 97 21H99C99 8.85396 89.146 -1.00001 77 -1.00001V0.999994Z" fill="#F68B21"/>
</svg>
