<svg width="60" height="60" viewBox="0 0 60 60" fill="none" xmlns="http://www.w3.org/2000/svg">
<path d="M24.3789 53.3789C25.8974 53.3789 27.1328 52.1435 27.1328 50.625C27.1328 49.1065 25.8974 47.8711 24.3789 47.8711C22.8604 47.8711 21.625 49.1065 21.625 50.625C21.625 52.1435 22.8604 53.3789 24.3789 53.3789ZM24.3789 49.6289C24.928 49.6289 25.375 50.0757 25.375 50.625C25.375 51.1743 24.928 51.6211 24.3789 51.6211C23.8298 51.6211 23.3828 51.1743 23.3828 50.625C23.3828 50.0757 23.8298 49.6289 24.3789 49.6289Z" fill="#FF6600"/>
<path d="M46.8789 53.3789C48.3974 53.3789 49.6328 52.1435 49.6328 50.625C49.6328 49.1065 48.3974 47.8711 46.8789 47.8711C45.3604 47.8711 44.125 49.1065 44.125 50.625C44.125 52.1435 45.3604 53.3789 46.8789 53.3789ZM46.8789 49.6289C47.428 49.6289 47.875 50.0757 47.875 50.625C47.875 51.1743 47.428 51.6211 46.8789 51.6211C46.3298 51.6211 45.8828 51.1743 45.8828 50.625C45.8828 50.0757 46.3298 49.6289 46.8789 49.6289Z" fill="#FF6600"/>
<path d="M30.9375 36.6211H32.8125V38.3789H30.9375V36.6211Z" fill="#FF6600"/>
<path d="M34.6875 36.6211H36.5625V38.3789H34.6875V36.6211Z" fill="#FF6600"/>
<path d="M38.4375 36.6211H40.3125V38.3789H38.4375V36.6211Z" fill="#FF6600"/>
<path d="M35.6202 25.3711C29.8518 25.3711 24.5282 28.5074 21.7266 33.5562L23.2635 34.4091C25.7554 29.9186 30.4902 27.1289 35.6202 27.1289V25.3711Z" fill="#FF6600"/>
<path d="M5.625 34.7461H14.0625V36.5039H5.625V34.7461Z" fill="#FF6600"/>
<path d="M2.8125 30.9961H15.9375V32.7539H2.8125V30.9961Z" fill="#FF6600"/>
<path d="M0 27.2461H17.8125V29.0039H0V27.2461Z" fill="#FF6600"/>
<path d="M20.6289 21.5039H26.2539V19.7461H25.3164C24.2502 19.7461 23.3828 18.8787 23.3828 17.8125C23.3828 16.7463 24.2502 15.8789 25.3164 15.8789H46.8789C48.9143 15.8789 50.5703 14.2229 50.5703 12.1875C50.5703 10.1521 48.9143 8.49609 46.8789 8.49609H31.0586C29.9924 8.49609 29.125 7.62867 29.125 6.5625C29.125 5.49633 29.9924 4.62891 31.0586 4.62891H33.8711V2.87109H26.3711C24.3357 2.87109 22.6797 4.52707 22.6797 6.5625C22.6797 8.59793 24.3357 10.2539 26.3711 10.2539H42.1914C43.2576 10.2539 44.125 11.1213 44.125 12.1875C44.125 13.2537 43.2576 14.1211 42.1914 14.1211H20.6289C18.5935 14.1211 16.9375 15.7771 16.9375 17.8125C16.9375 19.8479 18.5935 21.5039 20.6289 21.5039ZM24.4375 6.5625C24.4375 5.49633 25.3049 4.62891 26.3711 4.62891H27.9157C27.5683 5.19164 27.3672 5.85398 27.3672 6.5625C27.3672 7.27102 27.5683 7.93336 27.9157 8.49609H26.3711C25.3049 8.49609 24.4375 7.62867 24.4375 6.5625ZM45.3343 10.2539H46.8789C47.9451 10.2539 48.8125 11.1213 48.8125 12.1875C48.8125 13.2537 47.9451 14.1211 46.8789 14.1211H45.3343C45.6817 13.5584 45.8828 12.896 45.8828 12.1875C45.8828 11.479 45.6817 10.8166 45.3343 10.2539ZM20.6289 15.8789H22.1736C21.8261 16.4416 21.625 17.104 21.625 17.8125C21.625 18.521 21.8261 19.1834 22.1736 19.7461H20.6289C19.5627 19.7461 18.6953 18.8787 18.6953 17.8125C18.6953 16.7463 19.5627 15.8789 20.6289 15.8789Z" fill="#FF6600"/>
<path d="M60 40.371H55.2337C55.0163 35.3862 52.9526 30.7487 49.3652 27.232L48.1348 28.4873C51.3819 31.6706 53.2587 35.8624 53.4748 40.371H28.125V42.1288H56.0031L54.0109 44.121H17.239L15.2468 42.1288H26.25V40.371H17.7757C18.2355 30.9234 26.0655 23.3788 35.625 23.3788C39.5289 23.3788 43.237 24.6145 46.3488 26.9525L47.4047 25.5472C44.6579 23.4836 41.4885 22.2023 38.125 21.7781C38.2875 21.427 38.3789 21.0366 38.3789 20.625C38.3789 19.1065 37.1435 17.8711 35.625 17.8711C34.1065 17.8711 32.8711 19.1065 32.8711 20.625C32.8711 21.0371 32.9627 21.4281 33.1257 21.7795C23.763 22.9746 16.4411 30.7916 16.0168 40.3711H11.25V42.1289H12.7609L16.511 45.8789H19.9349C18.6662 47.0665 17.8712 48.7542 17.8712 50.625C17.8712 54.2113 20.7889 57.1289 24.3751 57.1289C27.9613 57.1289 30.879 54.2113 30.879 50.625C30.879 48.7542 30.084 47.0665 28.8154 45.8789H42.4349C41.1662 47.0665 40.3712 48.7542 40.3712 50.625C40.3712 54.2113 43.2888 57.1289 46.8751 57.1289C50.4614 57.1289 53.379 54.2113 53.379 50.625C53.379 48.7542 52.584 47.0665 51.3153 45.8789H54.7392L58.4892 42.1289H60V40.371ZM34.6289 20.6249C34.6289 20.0756 35.0759 19.6288 35.625 19.6288C36.1741 19.6288 36.6211 20.0756 36.6211 20.6249C36.6211 21.1741 36.1741 21.621 35.625 21.621C35.0759 21.621 34.6289 21.1741 34.6289 20.6249ZM29.1211 50.6249C29.1211 53.2419 26.992 55.371 24.375 55.371C21.758 55.371 19.6289 53.2419 19.6289 50.6249C19.6289 48.0079 21.758 45.8788 24.375 45.8788C26.992 45.8788 29.1211 48.0079 29.1211 50.6249ZM51.6211 50.6249C51.6211 53.2419 49.492 55.371 46.875 55.371C44.258 55.371 42.1289 53.2419 42.1289 50.6249C42.1289 48.0079 44.258 45.8788 46.875 45.8788C49.492 45.8788 51.6211 48.0079 51.6211 50.6249Z" fill="#FF6600"/>
</svg>
