<svg width="60" height="60" viewBox="0 0 60 60" fill="none" xmlns="http://www.w3.org/2000/svg">
<path d="M26.2422 39.4492H28.1209V41.2105H26.2422V39.4492Z" fill="#FF6600"/>
<path d="M30 39.4492H31.8787V41.2105H30V39.4492Z" fill="#FF6600"/>
<path d="M33.7578 39.4492H35.6365V41.2105H33.7578V39.4492Z" fill="#FF6600"/>
<path d="M46.3362 30.998H43.0948V7.51468H30.8834V0H14.0928V11.272H6.57812V24.3053H18.7895V32.818H20.5507V24.3053H38.3981V14.9119H41.3335V30.998H40.3942V36.6341H36.6368V43.2094H20.5507V34.6967H18.7895V50.6067H37.5175V48.8454H20.5507V44.9706H36.6368V46.3334L40.3942 50.0907V60H53.4274V38.0893L46.3362 30.998ZM29.0047 13.0333H31.0008V16.908H29.0047V13.0333ZM21.4901 1.76125H23.4861V5.63601H21.4901V1.76125ZM15.8541 1.76125H19.7288V7.39726H25.2474V1.76125H29.1222V11.272H15.8541V1.76125ZM13.9754 13.0333H15.9715V16.908H13.9754V13.0333ZM8.33938 13.0333H12.2141V18.6693H17.7327V13.0333H21.6075V22.544H8.33938V13.0333ZM36.6368 22.544H23.3687V13.0333H27.2435V18.6693H32.7621V13.0333H36.6368V22.544ZM38.3981 13.1507V11.272H30.8834V9.27593H41.3335V13.1507H38.3981ZM51.6662 58.2387H42.1554V49.3613L38.3981 45.604V38.3953H40.3942V43.1507H42.1554V32.7593H45.6068L51.6662 38.8187V58.2387Z" fill="#FF6600"/>
<path d="M16.8594 7.51562H18.738V9.27688H16.8594V7.51562Z" fill="#FF6600"/>
<path d="M9.34375 18.7852H11.2224V20.5464H9.34375V18.7852Z" fill="#FF6600"/>
<path d="M24.3672 18.7852H26.2459V20.5464H24.3672V18.7852Z" fill="#FF6600"/>
</svg>
