<svg width="60" height="60" viewBox="0 0 60 60" fill="none" xmlns="http://www.w3.org/2000/svg">
<path d="M54.3828 16.246L53.1262 17.4777C56.4238 20.8415 58.2398 25.2886 58.2398 29.9997C58.2398 39.8635 50.215 47.8882 40.3512 47.8882C30.4874 47.8882 22.4627 39.8635 22.4627 29.9997C22.4627 20.1358 30.4874 12.1111 40.3512 12.1111C44.2581 12.1111 47.9694 13.3477 51.0839 15.687L52.1407 14.2801C48.719 11.71 44.6422 10.3516 40.3512 10.3516C29.5172 10.3516 20.7031 19.1658 20.7031 29.9997C20.7031 40.8336 29.5172 49.6478 40.3512 49.6478C51.1852 49.6478 59.9993 40.8336 59.9993 29.9997C59.9993 24.8251 58.0046 19.9407 54.3828 16.246Z" fill="#FF6600"/>
<path d="M56.242 29.9999C56.242 21.2357 49.1118 14.1055 40.3476 14.1055C31.5833 14.1055 24.4531 21.2357 24.4531 29.9999C24.4531 33.0368 25.3127 35.9893 26.939 38.5382C28.5215 41.0185 30.7534 43.0095 33.3933 44.296L34.164 42.7143C31.8158 41.57 29.8304 39.7987 28.4223 37.5918C26.9766 35.3262 26.2127 32.701 26.2127 29.9999C26.2127 22.2059 32.5535 15.865 40.3476 15.865C48.1416 15.865 54.4825 22.2059 54.4825 29.9999C54.4825 37.7939 48.1416 44.1348 40.3476 44.1348C38.8369 44.1348 37.3507 43.898 35.9302 43.4311L35.3807 45.1027C36.9789 45.6279 38.65 45.8943 40.3476 45.8943C49.1118 45.8943 56.242 38.7641 56.242 29.9999Z" fill="#FF6600"/>
<path d="M31.9649 29.1209V34.634H39.4136V32.8745H33.7244V30.8804H39.3549V25.3672H31.9062V27.1267H37.5954V29.1209H31.9649Z" fill="#FF6600"/>
<path d="M41.3516 25.3086V30.8804H47.9205V34.6928H49.68V25.3086H47.9205V29.1209H43.1111V25.3086H41.3516Z" fill="#FF6600"/>
<path d="M39.4688 41.3164H41.2283V43.0759H39.4688V41.3164Z" fill="#FF6600"/>
<path d="M39.4688 16.9219H41.2283V18.6814H39.4688V16.9219Z" fill="#FF6600"/>
<path d="M51.6719 29.1211H53.4314V30.8806H51.6719V29.1211Z" fill="#FF6600"/>
<path d="M27.2734 29.1211H29.033V30.8806H27.2734V29.1211Z" fill="#FF6600"/>
<path d="M7.50781 32.875H18.7688V34.6345H7.50781V32.875Z" fill="#FF6600"/>
<path d="M2.8125 29.1211H17.8272V30.8806H2.8125V29.1211Z" fill="#FF6600"/>
<path d="M0 25.3672H18.7683V27.1267H0V25.3672Z" fill="#FF6600"/>
</svg>
