<svg width="65" height="45" viewBox="0 0 65 45" fill="none" xmlns="http://www.w3.org/2000/svg">
<path d="M26.3672 10.2383H28.5275V18.3713H38.5666V8.33216H24.334V2.10538H26.4943V5.21877H28.4005V2.10538H30.5608V6.23539H32.4669V0.199219H22.4278V8.33216H16.3281V18.3713H26.3672V10.2383ZM30.4337 10.2383H32.594V13.3517H34.5002V10.2383H36.6605V16.4651H30.4337V10.2383ZM24.4611 16.4651H18.2343V10.2383H20.3946V13.3517H22.3008V10.2383H24.4611V16.4651Z" fill="#FF6600"/>
<path d="M64.9988 39.7855C64.9988 34.9323 61.1741 30.9555 56.3803 30.7114L51.3708 24.4496C51.5274 24.4643 51.6858 24.4727 51.8462 24.4727H52.7993V14.4336H51.8463C49.4743 14.4336 47.4826 16.0881 46.9612 18.3033L45.1247 16.4668H41.6802V18.373H44.3353L46.8268 20.8645V32.6692H48.7329V24.2034L54.0787 30.8856C50.2485 31.6738 47.2909 34.8802 46.877 38.8324H35.5805C32.182 38.8324 29.4172 36.0676 29.4172 32.6692C29.4172 29.2708 32.182 26.5059 35.5805 26.5059H36.5335V20.5333H18.3615V26.5059H21.0802L16.8763 30.7098C12.0536 30.9225 8.19531 34.9113 8.19531 39.7855V40.7386H12.3537C12.8003 43.052 14.8394 44.8051 17.2813 44.8051C19.7232 44.8051 21.7623 43.052 22.209 40.7386H46.8268H47.7799H50.9851C51.4318 43.052 53.4709 44.8051 55.9128 44.8051C58.3547 44.8051 60.3938 43.052 60.8405 40.7386H64.9988V39.7855ZM20.2676 24.5998V22.4395H34.6274V24.5998H22.9863H20.2676ZM17.2813 42.8989C15.897 42.8989 14.7214 41.9904 14.3178 40.7386H20.2449C19.8413 41.9904 18.6657 42.8989 17.2813 42.8989ZM10.1645 38.8324C10.6321 35.3223 13.6455 32.6056 17.2813 32.6056C20.9171 32.6056 23.9306 35.3223 24.3982 38.8324H10.1645ZM26.3177 38.8324C25.9123 34.9592 23.0631 31.8039 19.3446 30.9371L23.7757 26.5059H30.3798C28.6269 27.9873 27.5109 30.1998 27.5109 32.6692C27.5109 35.1385 28.6269 37.3511 30.3798 38.8324H26.3177ZM50.8933 16.4889V22.4173C49.6412 22.0139 48.7329 20.8375 48.7329 19.4531C48.7329 18.0688 49.6412 16.8924 50.8933 16.4889ZM55.9128 42.8989C54.5284 42.8989 53.3528 41.9904 52.9492 40.7386H58.8764C58.4728 41.9904 57.2972 42.8989 55.9128 42.8989ZM48.796 38.8324C49.2636 35.3223 52.277 32.6056 55.9128 32.6056C59.5487 32.6056 62.5621 35.3223 63.0296 38.8324H48.796Z" fill="#FF6600"/>
<path d="M4.07031 23.582H16.2697V25.4882H4.07031V23.582Z" fill="#FF6600"/>
<path d="M2.03125 19.5156H14.2307V21.4218H2.03125V19.5156Z" fill="#FF6600"/>
<path d="M0 15.4492H12.1994V17.3554H0V15.4492Z" fill="#FF6600"/>
<path d="M13.2188 35.7812H15.252V37.6874H13.2188V35.7812Z" fill="#FF6600"/>
<path d="M15.25 33.7461H17.2832V35.6523H15.25V33.7461Z" fill="#FF6600"/>
<path d="M51.8438 35.7812H53.877V37.6874H51.8438V35.7812Z" fill="#FF6600"/>
<path d="M53.8828 33.7461H55.916V35.6523H53.8828V33.7461Z" fill="#FF6600"/>
</svg>
